<?xml version="1.0" standalone="no"?>
<!DOCTYPE svg PUBLIC "-//W3C//DTD SVG 20010904//EN"
 "http://www.w3.org/TR/2001/REC-SVG-20010904/DTD/svg10.dtd">
<svg version="1.0" xmlns="http://www.w3.org/2000/svg"
 width="500.000000pt" height="500.000000pt" viewBox="0 0 500.000000 500.000000"
 preserveAspectRatio="xMidYMid meet">
<metadata>
Created by potrace 1.14, written by Peter Selinger 2001-2017
</metadata>
<g transform="translate(0.000000,500.000000) scale(0.100000,-0.100000)"
fill="#000000" stroke="none">
<path d="M2350 4490 c-203 -28 -433 -91 -549 -150 -33 -16 -66 -30 -72 -30 -7
0 -92 -48 -189 -106 -150 -89 -203 -128 -346 -253 -181 -158 -275 -254 -413
-419 -348 -420 -595 -851 -700 -1226 -65 -229 -76 -306 -76 -511 0 -117 5
-211 13 -244 36 -152 124 -312 237 -427 218 -221 449 -336 955 -473 341 -92
863 -145 1440 -145 416 0 568 12 900 70 380 67 571 127 830 261 193 100 305
193 427 356 83 112 132 207 165 322 21 72 23 101 23 275 -1 186 -2 202 -34
335 -84 353 -212 660 -419 1005 -105 174 -366 512 -517 669 -201 209 -495 430
-705 530 -130 62 -283 113 -426 142 -123 24 -428 35 -544 19z m420 -115 c204
-30 451 -118 625 -219 207 -122 357 -251 591 -508 182 -200 261 -299 352 -444
38 -60 90 -140 116 -179 51 -74 191 -353 249 -495 42 -101 112 -331 127 -415
30 -171 20 -437 -21 -572 -45 -145 -139 -296 -242 -389 -173 -156 -511 -316
-821 -389 -234 -55 -529 -100 -786 -120 -257 -20 -911 99 -1292 236 -478 171
-818 466 -987 856 -91 211 -115 318 -131 590 -24 414 47 784 186 969 197 261
516 568 762 734 249 167 609 312 864 349 99 14 304 12 408 -4z"/>
<path d="M1638 3295 c-38 -21 -56 -88 -68 -260 -24 -335 0 -996 41 -1101 23
-61 89 -82 127 -41 53 56 66 216 67 802 0 510 -4 553 -51 588 -34 25 -83 30
-116 12z"/>
<path d="M3275 3266 c-9 -14 -26 -69 -38 -123 -21 -93 -22 -121 -21 -563 1
-556 11 -675 64 -722 62 -57 140 -20 159 75 48 242 53 1048 7 1222 -27 104
-55 135 -120 135 -27 0 -40 -6 -51 -24z"/>
<path d="M2190 1865 c-38 -45 25 -224 102 -290 71 -60 123 -80 208 -80 88 1
145 22 209 80 88 80 156 305 92 305 -26 0 -34 -14 -61 -98 -44 -139 -120 -202
-245 -202 -111 0 -190 71 -236 213 -27 83 -44 102 -69 72z"/>
</g>
</svg>
