<svg width="192" height="43" viewBox="0 0 192 43" fill="none" xmlns="http://www.w3.org/2000/svg">
<rect x="0.5" y="0.5" width="191" height="42" rx="21" fill="#041836"/>
<circle cx="25.5" cy="21.5" r="17.5" fill="#041836"/>
<rect width="28" height="21" transform="translate(12 12)" fill="#041836"/>
<path d="M36.5981 29.9046L36.5856 29.8984C36.5481 29.9536 36.5043 30.0087 36.4668 30.0639C36.5106 30.0087 36.5606 29.9597 36.5981 29.9046Z" fill="#041836"/>
<path d="M40 19.9414C39.8875 15.5356 36.2171 12 31.7025 12C29.4828 12 27.4757 12.8579 25.9812 14.2488C24.4993 12.8579 22.4984 12 20.2975 12C15.7829 12 12.1126 15.5785 12 20.0395V20.0701V20.1007C12 23.4954 13.2568 26.5102 14.4073 28.5814C14.9888 29.6353 15.5766 30.4932 16.0205 31.0937C16.2394 31.394 16.4332 31.6329 16.5708 31.8045C16.6396 31.8903 16.6958 31.9577 16.7396 32.0067C16.7584 32.0312 16.7771 32.0496 16.7896 32.068C16.7959 32.0741 16.8021 32.0803 16.8084 32.0864L16.8146 32.0925L16.8209 32.0986C17.7838 33.1955 19.4596 33.3058 20.5663 32.3499C21.6668 31.394 21.7794 29.7334 20.8227 28.6365C20.8227 28.6365 20.8227 28.6365 20.8227 28.6304C20.8227 28.6243 20.8164 28.6181 20.8039 28.612C20.7852 28.5875 20.7539 28.5507 20.7039 28.4956C20.6163 28.3853 20.4788 28.2137 20.31 27.9809C19.9723 27.5213 19.5159 26.8534 19.0657 26.0323C18.1402 24.3656 17.3274 22.2638 17.3149 20.1314C17.3711 18.5382 18.6905 17.2636 20.3037 17.2636C21.9294 17.2636 23.255 18.5504 23.2925 20.162C23.305 20.5726 23.4113 20.9586 23.5864 21.3017C23.9616 22.2883 24.9308 22.993 26.0688 22.993C27.5319 22.993 28.72 21.8287 28.72 20.3887V20.0395C28.7762 18.4647 30.0956 17.2085 31.7088 17.2085C33.322 17.2085 34.6414 18.4708 34.6976 20.0395C34.6914 21.7552 34.1286 23.4403 33.4971 24.7761C33.1845 25.4318 32.8781 25.9649 32.653 26.3325C32.5404 26.5164 32.4466 26.6512 32.3904 26.737C32.3591 26.7799 32.3403 26.8105 32.3278 26.8227C32.3216 26.8289 32.3216 26.835 32.3153 26.835C32.3091 26.8473 32.2903 26.8718 32.2903 26.8718C32.778 26.2713 33.5221 25.8913 34.3662 25.8913C35.8294 25.8913 37.0174 27.0556 37.0174 28.4895C37.0174 29.0103 36.8611 29.4883 36.5922 29.8988C36.6047 29.9049 36.6047 29.9049 36.6047 29.9049V29.8988L36.611 29.8927C36.6172 29.8866 36.6172 29.8804 36.6235 29.8743C36.636 29.8621 36.6485 29.8437 36.661 29.8192C36.6923 29.7763 36.7298 29.7211 36.7798 29.6476C36.8799 29.5066 37.0112 29.3044 37.1675 29.0532C37.4801 28.5507 37.8928 27.8399 38.3055 26.9637C39.1184 25.2479 39.9937 22.7724 39.9937 20.0027V19.9721L40 19.9414Z" fill="white"/>
<path d="M34.3602 25.8916C33.5223 25.8916 32.772 26.2776 32.2842 26.872C31.9216 27.3132 31.709 27.8769 31.709 28.4897C31.709 29.9236 32.897 31.0878 34.3602 31.0878C35.2231 31.0878 35.9796 30.6834 36.4674 30.0645C36.5111 30.0094 36.5486 29.9542 36.5862 29.8991C36.855 29.4946 37.0113 29.0106 37.0113 28.4897C37.0113 27.0558 35.8296 25.8916 34.3602 25.8916Z" fill="#B7E803"/>
<path d="M55.6094 20.4297C55.6094 21.2969 55.3125 21.9648 54.7188 22.4336C54.1289 22.8984 53.2832 23.1309 52.1816 23.1309H51.1738V26.5H50.1777V17.9336H52.3984C54.5391 17.9336 55.6094 18.7656 55.6094 20.4297ZM51.1738 22.2754H52.0703C52.9531 22.2754 53.5918 22.1328 53.9863 21.8477C54.3809 21.5625 54.5781 21.1055 54.5781 20.4766C54.5781 19.9102 54.3926 19.4883 54.0215 19.2109C53.6504 18.9336 53.0723 18.7949 52.2871 18.7949H51.1738V22.2754ZM62.8047 23.2832C62.8047 24.3301 62.541 25.1484 62.0137 25.7383C61.4863 26.3242 60.7578 26.6172 59.8281 26.6172C59.2539 26.6172 58.7441 26.4824 58.2988 26.2129C57.8535 25.9434 57.5098 25.5566 57.2676 25.0527C57.0254 24.5488 56.9043 23.959 56.9043 23.2832C56.9043 22.2363 57.166 21.4219 57.6895 20.8398C58.2129 20.2539 58.9395 19.9609 59.8691 19.9609C60.7676 19.9609 61.4805 20.2598 62.0078 20.8574C62.5391 21.4551 62.8047 22.2637 62.8047 23.2832ZM57.9121 23.2832C57.9121 24.1035 58.0762 24.7285 58.4043 25.1582C58.7324 25.5879 59.2148 25.8027 59.8516 25.8027C60.4883 25.8027 60.9707 25.5898 61.2988 25.1641C61.6309 24.7344 61.7969 24.1074 61.7969 23.2832C61.7969 22.4668 61.6309 21.8477 61.2988 21.4258C60.9707 21 60.4844 20.7871 59.8398 20.7871C59.2031 20.7871 58.7227 20.9961 58.3984 21.4141C58.0742 21.832 57.9121 22.4551 57.9121 23.2832ZM69.7598 26.5L68.582 22.7324C68.5078 22.502 68.3691 21.9785 68.166 21.1621H68.1191C67.9629 21.8457 67.8262 22.373 67.709 22.7441L66.4961 26.5H65.3711L63.6191 20.0781H64.6387C65.0527 21.6914 65.3672 22.9199 65.582 23.7637C65.8008 24.6074 65.9258 25.1758 65.957 25.4688H66.0039C66.0469 25.2461 66.1152 24.959 66.209 24.6074C66.3066 24.252 66.3906 23.9707 66.4609 23.7637L67.6387 20.0781H68.6934L69.8418 23.7637C70.0605 24.4355 70.209 25 70.2871 25.457H70.334C70.3496 25.3164 70.3906 25.0996 70.457 24.8066C70.5273 24.5137 70.9355 22.9375 71.6816 20.0781H72.6895L70.9141 26.5H69.7598ZM76.5684 26.6172C75.6191 26.6172 74.8691 26.3281 74.3184 25.75C73.7715 25.1719 73.498 24.3691 73.498 23.3418C73.498 22.3066 73.752 21.4844 74.2598 20.875C74.7715 20.2656 75.457 19.9609 76.3164 19.9609C77.1211 19.9609 77.7578 20.2266 78.2266 20.7578C78.6953 21.2852 78.9297 21.9824 78.9297 22.8496V23.4648H74.5059C74.5254 24.2188 74.7148 24.791 75.0742 25.1816C75.4375 25.5723 75.9473 25.7676 76.6035 25.7676C77.2949 25.7676 77.9785 25.623 78.6543 25.334V26.2012C78.3105 26.3496 77.9844 26.4551 77.6758 26.5176C77.3711 26.584 77.002 26.6172 76.5684 26.6172ZM76.3047 20.7754C75.7891 20.7754 75.377 20.9434 75.0684 21.2793C74.7637 21.6152 74.584 22.0801 74.5293 22.6738H77.8867C77.8867 22.0605 77.75 21.5918 77.4766 21.2676C77.2031 20.9395 76.8125 20.7754 76.3047 20.7754ZM83.5234 19.9609C83.8086 19.9609 84.0645 19.9844 84.291 20.0312L84.1562 20.9336C83.8906 20.875 83.6562 20.8457 83.4531 20.8457C82.9336 20.8457 82.4883 21.0566 82.1172 21.4785C81.75 21.9004 81.5664 22.4258 81.5664 23.0547V26.5H80.5938V20.0781H81.3965L81.5078 21.2676H81.5547C81.793 20.8496 82.0801 20.5273 82.416 20.3008C82.752 20.0742 83.1211 19.9609 83.5234 19.9609ZM88.2051 26.6172C87.2559 26.6172 86.5059 26.3281 85.9551 25.75C85.4082 25.1719 85.1348 24.3691 85.1348 23.3418C85.1348 22.3066 85.3887 21.4844 85.8965 20.875C86.4082 20.2656 87.0938 19.9609 87.9531 19.9609C88.7578 19.9609 89.3945 20.2266 89.8633 20.7578C90.332 21.2852 90.5664 21.9824 90.5664 22.8496V23.4648H86.1426C86.1621 24.2188 86.3516 24.791 86.7109 25.1816C87.0742 25.5723 87.584 25.7676 88.2402 25.7676C88.9316 25.7676 89.6152 25.623 90.291 25.334V26.2012C89.9473 26.3496 89.6211 26.4551 89.3125 26.5176C89.0078 26.584 88.6387 26.6172 88.2051 26.6172ZM87.9414 20.7754C87.4258 20.7754 87.0137 20.9434 86.7051 21.2793C86.4004 21.6152 86.2207 22.0801 86.166 22.6738H89.5234C89.5234 22.0605 89.3867 21.5918 89.1133 21.2676C88.8398 20.9395 88.4492 20.7754 87.9414 20.7754ZM96.6016 25.6387H96.5488C96.0996 26.291 95.4277 26.6172 94.5332 26.6172C93.6934 26.6172 93.0391 26.3301 92.5703 25.7559C92.1055 25.1816 91.873 24.3652 91.873 23.3066C91.873 22.248 92.1074 21.4258 92.5762 20.8398C93.0449 20.2539 93.6973 19.9609 94.5332 19.9609C95.4043 19.9609 96.0723 20.2773 96.5371 20.9102H96.6133L96.5723 20.4473L96.5488 19.9961V17.3828H97.5215V26.5H96.7305L96.6016 25.6387ZM94.6562 25.8027C95.3203 25.8027 95.8008 25.623 96.0977 25.2637C96.3984 24.9004 96.5488 24.3164 96.5488 23.5117V23.3066C96.5488 22.3965 96.3965 21.748 96.0918 21.3613C95.791 20.9707 95.3086 20.7754 94.6445 20.7754C94.0742 20.7754 93.6367 20.998 93.332 21.4434C93.0312 21.8848 92.8809 22.5098 92.8809 23.3184C92.8809 24.1387 93.0312 24.7578 93.332 25.1758C93.6328 25.5938 94.0742 25.8027 94.6562 25.8027ZM105.695 19.9727C106.539 19.9727 107.193 20.2617 107.658 20.8398C108.127 21.4141 108.361 22.2285 108.361 23.2832C108.361 24.3379 108.125 25.1582 107.652 25.7441C107.184 26.3262 106.531 26.6172 105.695 26.6172C105.277 26.6172 104.895 26.541 104.547 26.3887C104.203 26.2324 103.914 25.9941 103.68 25.6738H103.609L103.404 26.5H102.707V17.3828H103.68V19.5977C103.68 20.0938 103.664 20.5391 103.633 20.9336H103.68C104.133 20.293 104.805 19.9727 105.695 19.9727ZM105.555 20.7871C104.891 20.7871 104.412 20.9785 104.119 21.3613C103.826 21.7402 103.68 22.3809 103.68 23.2832C103.68 24.1855 103.83 24.832 104.131 25.2227C104.432 25.6094 104.914 25.8027 105.578 25.8027C106.176 25.8027 106.621 25.5859 106.914 25.1523C107.207 24.7148 107.354 24.0879 107.354 23.2715C107.354 22.4355 107.207 21.8125 106.914 21.4023C106.621 20.9922 106.168 20.7871 105.555 20.7871ZM109.047 20.0781H110.09L111.496 23.7402C111.805 24.5762 111.996 25.1797 112.07 25.5508H112.117C112.168 25.3516 112.273 25.0117 112.434 24.5312C112.598 24.0469 113.129 22.5625 114.027 20.0781H115.07L112.311 27.3906C112.037 28.1133 111.717 28.625 111.35 28.9258C110.986 29.2305 110.539 29.3828 110.008 29.3828C109.711 29.3828 109.418 29.3496 109.129 29.2832V28.5039C109.344 28.5508 109.584 28.5742 109.85 28.5742C110.518 28.5742 110.994 28.1992 111.279 27.4492L111.637 26.5352L109.047 20.0781ZM122.904 26.5L120.842 19.7793H120.789C120.863 21.1465 120.9 22.0586 120.9 22.5156V26.5H119.277V17.9336H121.75L123.777 24.4844H123.812L125.963 17.9336H128.436V26.5H126.742V22.4453C126.742 22.2539 126.744 22.0332 126.748 21.7832C126.756 21.5332 126.783 20.8691 126.83 19.791H126.777L124.568 26.5H122.904ZM131.881 23.2129C131.881 23.8613 131.986 24.3516 132.197 24.6836C132.412 25.0156 132.76 25.1816 133.24 25.1816C133.717 25.1816 134.059 25.0176 134.266 24.6895C134.477 24.3574 134.582 23.8652 134.582 23.2129C134.582 22.5645 134.477 22.0781 134.266 21.7539C134.055 21.4297 133.709 21.2676 133.229 21.2676C132.752 21.2676 132.408 21.4297 132.197 21.7539C131.986 22.0742 131.881 22.5605 131.881 23.2129ZM136.41 23.2129C136.41 24.2793 136.129 25.1133 135.566 25.7148C135.004 26.3164 134.221 26.6172 133.217 26.6172C132.588 26.6172 132.033 26.4805 131.553 26.207C131.072 25.9297 130.703 25.5332 130.445 25.0176C130.188 24.502 130.059 23.9004 130.059 23.2129C130.059 22.1426 130.338 21.3105 130.896 20.7168C131.455 20.123 132.24 19.8262 133.252 19.8262C133.881 19.8262 134.436 19.9629 134.916 20.2363C135.396 20.5098 135.766 20.9023 136.023 21.4141C136.281 21.9258 136.41 22.5254 136.41 23.2129ZM141.543 19.8262C141.785 19.8262 141.986 19.8438 142.146 19.8789L142.012 21.5547C141.867 21.5156 141.691 21.4961 141.484 21.4961C140.914 21.4961 140.469 21.6426 140.148 21.9355C139.832 22.2285 139.674 22.6387 139.674 23.166V26.5H137.887V19.9492H139.24L139.504 21.0508H139.592C139.795 20.6836 140.068 20.3887 140.412 20.166C140.76 19.9395 141.137 19.8262 141.543 19.8262ZM147.496 26.5L147.15 25.6094H147.104C146.803 25.9883 146.492 26.252 146.172 26.4004C145.855 26.5449 145.441 26.6172 144.93 26.6172C144.301 26.6172 143.805 26.4375 143.441 26.0781C143.082 25.7188 142.902 25.207 142.902 24.543C142.902 23.8477 143.145 23.3359 143.629 23.0078C144.117 22.6758 144.852 22.4922 145.832 22.457L146.969 22.4219V22.1348C146.969 21.4707 146.629 21.1387 145.949 21.1387C145.426 21.1387 144.811 21.2969 144.104 21.6133L143.512 20.4062C144.266 20.0117 145.102 19.8145 146.02 19.8145C146.898 19.8145 147.572 20.0059 148.041 20.3887C148.51 20.7715 148.744 21.3535 148.744 22.1348V26.5H147.496ZM146.969 23.4648L146.277 23.4883C145.758 23.5039 145.371 23.5977 145.117 23.7695C144.863 23.9414 144.736 24.2031 144.736 24.5547C144.736 25.0586 145.025 25.3105 145.604 25.3105C146.018 25.3105 146.348 25.1914 146.594 24.9531C146.844 24.7148 146.969 24.3984 146.969 24.0039V23.4648ZM152.377 26.5H150.59V17.3828H152.377V26.5ZM154.182 18.2559C154.182 17.6738 154.506 17.3828 155.154 17.3828C155.803 17.3828 156.127 17.6738 156.127 18.2559C156.127 18.5332 156.045 18.75 155.881 18.9062C155.721 19.0586 155.479 19.1348 155.154 19.1348C154.506 19.1348 154.182 18.8418 154.182 18.2559ZM156.045 26.5H154.258V19.9492H156.045V26.5ZM162.496 24.5547C162.496 25.2266 162.262 25.7383 161.793 26.0898C161.328 26.4414 160.631 26.6172 159.701 26.6172C159.225 26.6172 158.818 26.584 158.482 26.5176C158.146 26.4551 157.832 26.3613 157.539 26.2363V24.7598C157.871 24.916 158.244 25.0469 158.658 25.1523C159.076 25.2578 159.443 25.3105 159.76 25.3105C160.408 25.3105 160.732 25.123 160.732 24.748C160.732 24.6074 160.689 24.4941 160.604 24.4082C160.518 24.3184 160.369 24.2188 160.158 24.1094C159.947 23.9961 159.666 23.8652 159.314 23.7168C158.811 23.5059 158.439 23.3105 158.201 23.1309C157.967 22.9512 157.795 22.7461 157.686 22.5156C157.58 22.2812 157.527 21.9941 157.527 21.6543C157.527 21.0723 157.752 20.623 158.201 20.3066C158.654 19.9863 159.295 19.8262 160.123 19.8262C160.912 19.8262 161.68 19.998 162.426 20.3418L161.887 21.6309C161.559 21.4902 161.252 21.375 160.967 21.2852C160.682 21.1953 160.391 21.1504 160.094 21.1504C159.566 21.1504 159.303 21.293 159.303 21.5781C159.303 21.7383 159.387 21.877 159.555 21.9941C159.727 22.1113 160.1 22.2852 160.674 22.5156C161.186 22.7227 161.561 22.916 161.799 23.0957C162.037 23.2754 162.213 23.4824 162.326 23.7168C162.439 23.9512 162.496 24.2305 162.496 24.5547ZM163.639 25.6621C163.639 25.334 163.727 25.0859 163.902 24.918C164.078 24.75 164.334 24.666 164.67 24.666C164.994 24.666 165.244 24.752 165.42 24.9238C165.6 25.0957 165.689 25.3418 165.689 25.6621C165.689 25.9707 165.6 26.2148 165.42 26.3945C165.24 26.5703 164.99 26.6582 164.67 26.6582C164.342 26.6582 164.088 26.5723 163.908 26.4004C163.729 26.2246 163.639 25.9785 163.639 25.6621ZM167.236 18.2559C167.236 17.6738 167.561 17.3828 168.209 17.3828C168.857 17.3828 169.182 17.6738 169.182 18.2559C169.182 18.5332 169.1 18.75 168.936 18.9062C168.775 19.0586 168.533 19.1348 168.209 19.1348C167.561 19.1348 167.236 18.8418 167.236 18.2559ZM169.1 26.5H167.312V19.9492H169.1V26.5ZM172.404 23.2129C172.404 23.8613 172.51 24.3516 172.721 24.6836C172.936 25.0156 173.283 25.1816 173.764 25.1816C174.24 25.1816 174.582 25.0176 174.789 24.6895C175 24.3574 175.105 23.8652 175.105 23.2129C175.105 22.5645 175 22.0781 174.789 21.7539C174.578 21.4297 174.232 21.2676 173.752 21.2676C173.275 21.2676 172.932 21.4297 172.721 21.7539C172.51 22.0742 172.404 22.5605 172.404 23.2129ZM176.934 23.2129C176.934 24.2793 176.652 25.1133 176.09 25.7148C175.527 26.3164 174.744 26.6172 173.74 26.6172C173.111 26.6172 172.557 26.4805 172.076 26.207C171.596 25.9297 171.227 25.5332 170.969 25.0176C170.711 24.502 170.582 23.9004 170.582 23.2129C170.582 22.1426 170.861 21.3105 171.42 20.7168C171.979 20.123 172.764 19.8262 173.775 19.8262C174.404 19.8262 174.959 19.9629 175.439 20.2363C175.92 20.5098 176.289 20.9023 176.547 21.4141C176.805 21.9258 176.934 22.5254 176.934 23.2129Z" fill="white"/>
<rect x="0.5" y="0.5" width="191" height="42" rx="21" stroke="#041836"/>
</svg>
